<mxfile host="app.diagrams.net" modified="2023-06-15T04:18:05.980Z" agent="Mozilla/5.0 (Macintosh; Intel Mac OS X 10_15_7) AppleWebKit/537.36 (KHTML, like Gecko) Chrome/114.0.0.0 Safari/537.36" etag="HBFZuFmBi5SqcDSXfzQ5" version="21.4.0" type="device" pages="2">
  <diagram name="process vs thread" id="vVsf7y6aLCeZuOeQ3_Q5">
    <mxGraphModel dx="1408" dy="1043" grid="1" gridSize="10" guides="1" tooltips="1" connect="1" arrows="1" fold="1" page="1" pageScale="1" pageWidth="827" pageHeight="1169" math="0" shadow="0">
      <root>
        <mxCell id="0" />
        <mxCell id="1" parent="0" />
        <mxCell id="RyWQwI0cDfIO8_9Zq9iC-2" value="" style="rounded=0;whiteSpace=wrap;html=1;fillColor=none;dashed=1;fontStyle=1;strokeColor=none;" vertex="1" parent="1">
          <mxGeometry x="80" y="160" width="680" height="440" as="geometry" />
        </mxCell>
        <mxCell id="RyWQwI0cDfIO8_9Zq9iC-4" value="" style="rounded=0;whiteSpace=wrap;html=1;fontStyle=1;shadow=1;" vertex="1" parent="1">
          <mxGeometry x="310" y="170" width="440" height="420" as="geometry" />
        </mxCell>
        <mxCell id="RyWQwI0cDfIO8_9Zq9iC-25" value="" style="rounded=0;whiteSpace=wrap;html=1;fillColor=none;fontStyle=1" vertex="1" parent="1">
          <mxGeometry x="410" y="180" width="100" height="390" as="geometry" />
        </mxCell>
        <mxCell id="RyWQwI0cDfIO8_9Zq9iC-26" value="" style="rounded=0;whiteSpace=wrap;html=1;fillColor=none;fontStyle=1" vertex="1" parent="1">
          <mxGeometry x="520" y="180" width="100" height="390" as="geometry" />
        </mxCell>
        <mxCell id="RyWQwI0cDfIO8_9Zq9iC-27" value="" style="rounded=0;whiteSpace=wrap;html=1;fillColor=none;fontStyle=1" vertex="1" parent="1">
          <mxGeometry x="630" y="180" width="100" height="390" as="geometry" />
        </mxCell>
        <mxCell id="RyWQwI0cDfIO8_9Zq9iC-3" value="" style="rounded=0;whiteSpace=wrap;html=1;fontStyle=1;shadow=1;" vertex="1" parent="1">
          <mxGeometry x="90" y="170" width="210" height="420" as="geometry" />
        </mxCell>
        <mxCell id="RyWQwI0cDfIO8_9Zq9iC-9" value="" style="rounded=0;whiteSpace=wrap;html=1;fillColor=none;dashed=1;fontStyle=1" vertex="1" parent="1">
          <mxGeometry x="100" y="290" width="190" height="290" as="geometry" />
        </mxCell>
        <mxCell id="RyWQwI0cDfIO8_9Zq9iC-5" value="Heap" style="rounded=0;whiteSpace=wrap;html=1;shadow=1;fontStyle=1" vertex="1" parent="1">
          <mxGeometry x="110" y="360" width="70" height="40" as="geometry" />
        </mxCell>
        <mxCell id="RyWQwI0cDfIO8_9Zq9iC-6" value="Static" style="rounded=0;whiteSpace=wrap;html=1;shadow=1;fontStyle=1" vertex="1" parent="1">
          <mxGeometry x="110" y="440" width="70" height="40" as="geometry" />
        </mxCell>
        <mxCell id="RyWQwI0cDfIO8_9Zq9iC-7" value="Code" style="rounded=0;whiteSpace=wrap;html=1;shadow=1;fontStyle=1" vertex="1" parent="1">
          <mxGeometry x="110" y="520" width="70" height="40" as="geometry" />
        </mxCell>
        <mxCell id="RyWQwI0cDfIO8_9Zq9iC-8" value="Stack" style="rounded=0;whiteSpace=wrap;html=1;shadow=1;fontStyle=1" vertex="1" parent="1">
          <mxGeometry x="200" y="360" width="80" height="200" as="geometry" />
        </mxCell>
        <mxCell id="RyWQwI0cDfIO8_9Zq9iC-10" value="Memory" style="text;html=1;strokeColor=none;fillColor=none;align=center;verticalAlign=middle;whiteSpace=wrap;rounded=0;fontStyle=1" vertex="1" parent="1">
          <mxGeometry x="115" y="310" width="60" height="30" as="geometry" />
        </mxCell>
        <mxCell id="RyWQwI0cDfIO8_9Zq9iC-11" value="Registers" style="rounded=0;whiteSpace=wrap;html=1;shadow=1;fontStyle=1" vertex="1" parent="1">
          <mxGeometry x="200" y="230" width="80" height="40" as="geometry" />
        </mxCell>
        <mxCell id="RyWQwI0cDfIO8_9Zq9iC-14" value="" style="rounded=0;whiteSpace=wrap;html=1;fillColor=none;dashed=1;fontStyle=1" vertex="1" parent="1">
          <mxGeometry x="320" y="290" width="420" height="290" as="geometry" />
        </mxCell>
        <mxCell id="RyWQwI0cDfIO8_9Zq9iC-15" value="Heap" style="rounded=0;whiteSpace=wrap;html=1;shadow=1;fontStyle=1" vertex="1" parent="1">
          <mxGeometry x="330" y="360" width="70" height="40" as="geometry" />
        </mxCell>
        <mxCell id="RyWQwI0cDfIO8_9Zq9iC-16" value="Static" style="rounded=0;whiteSpace=wrap;html=1;shadow=1;fontStyle=1" vertex="1" parent="1">
          <mxGeometry x="330" y="440" width="70" height="40" as="geometry" />
        </mxCell>
        <mxCell id="RyWQwI0cDfIO8_9Zq9iC-17" value="Code" style="rounded=0;whiteSpace=wrap;html=1;shadow=1;fontStyle=1" vertex="1" parent="1">
          <mxGeometry x="330" y="520" width="70" height="40" as="geometry" />
        </mxCell>
        <mxCell id="RyWQwI0cDfIO8_9Zq9iC-18" value="&lt;meta charset=&quot;utf-8&quot;&gt;&lt;span style=&quot;color: rgb(0, 0, 0); font-family: Helvetica; font-size: 12px; font-style: normal; font-variant-ligatures: normal; font-variant-caps: normal; font-weight: 700; letter-spacing: normal; orphans: 2; text-align: center; text-indent: 0px; text-transform: none; widows: 2; word-spacing: 0px; -webkit-text-stroke-width: 0px; background-color: rgb(251, 251, 251); text-decoration-thickness: initial; text-decoration-style: initial; text-decoration-color: initial; float: none; display: inline !important;&quot;&gt;Stack&lt;/span&gt;" style="rounded=0;whiteSpace=wrap;html=1;shadow=1;fontStyle=1" vertex="1" parent="1">
          <mxGeometry x="420" y="360" width="80" height="200" as="geometry" />
        </mxCell>
        <mxCell id="RyWQwI0cDfIO8_9Zq9iC-19" value="Memory" style="text;html=1;strokeColor=none;fillColor=none;align=center;verticalAlign=middle;whiteSpace=wrap;rounded=0;fontStyle=1" vertex="1" parent="1">
          <mxGeometry x="335" y="310" width="60" height="30" as="geometry" />
        </mxCell>
        <mxCell id="RyWQwI0cDfIO8_9Zq9iC-20" value="Registers" style="rounded=0;whiteSpace=wrap;html=1;shadow=1;fontStyle=1" vertex="1" parent="1">
          <mxGeometry x="420" y="230" width="80" height="40" as="geometry" />
        </mxCell>
        <mxCell id="RyWQwI0cDfIO8_9Zq9iC-21" value="&lt;meta charset=&quot;utf-8&quot;&gt;&lt;span style=&quot;color: rgb(0, 0, 0); font-family: Helvetica; font-size: 12px; font-style: normal; font-variant-ligatures: normal; font-variant-caps: normal; font-weight: 700; letter-spacing: normal; orphans: 2; text-align: center; text-indent: 0px; text-transform: none; widows: 2; word-spacing: 0px; -webkit-text-stroke-width: 0px; background-color: rgb(251, 251, 251); text-decoration-thickness: initial; text-decoration-style: initial; text-decoration-color: initial; float: none; display: inline !important;&quot;&gt;Stack&lt;/span&gt;" style="rounded=0;whiteSpace=wrap;html=1;shadow=1;fontStyle=1" vertex="1" parent="1">
          <mxGeometry x="530" y="360" width="80" height="200" as="geometry" />
        </mxCell>
        <mxCell id="RyWQwI0cDfIO8_9Zq9iC-22" value="&lt;meta charset=&quot;utf-8&quot;&gt;&lt;span style=&quot;color: rgb(0, 0, 0); font-family: Helvetica; font-size: 12px; font-style: normal; font-variant-ligatures: normal; font-variant-caps: normal; font-weight: 700; letter-spacing: normal; orphans: 2; text-align: center; text-indent: 0px; text-transform: none; widows: 2; word-spacing: 0px; -webkit-text-stroke-width: 0px; background-color: rgb(251, 251, 251); text-decoration-thickness: initial; text-decoration-style: initial; text-decoration-color: initial; float: none; display: inline !important;&quot;&gt;Stack&lt;/span&gt;" style="rounded=0;whiteSpace=wrap;html=1;shadow=1;fontStyle=1" vertex="1" parent="1">
          <mxGeometry x="640" y="360" width="80" height="200" as="geometry" />
        </mxCell>
        <mxCell id="RyWQwI0cDfIO8_9Zq9iC-23" value="Registers" style="rounded=0;whiteSpace=wrap;html=1;shadow=1;fontStyle=1" vertex="1" parent="1">
          <mxGeometry x="530" y="230" width="80" height="40" as="geometry" />
        </mxCell>
        <mxCell id="RyWQwI0cDfIO8_9Zq9iC-24" value="Registers" style="rounded=0;whiteSpace=wrap;html=1;shadow=1;fontStyle=1" vertex="1" parent="1">
          <mxGeometry x="640" y="230" width="80" height="40" as="geometry" />
        </mxCell>
        <mxCell id="RyWQwI0cDfIO8_9Zq9iC-28" value="process" style="text;html=1;strokeColor=none;fillColor=none;align=center;verticalAlign=middle;whiteSpace=wrap;rounded=0;fontStyle=1" vertex="1" parent="1">
          <mxGeometry x="100" y="180" width="60" height="30" as="geometry" />
        </mxCell>
        <mxCell id="RyWQwI0cDfIO8_9Zq9iC-29" value="process" style="text;html=1;strokeColor=none;fillColor=none;align=center;verticalAlign=middle;whiteSpace=wrap;rounded=0;fontStyle=1" vertex="1" parent="1">
          <mxGeometry x="320" y="180" width="60" height="30" as="geometry" />
        </mxCell>
        <mxCell id="RyWQwI0cDfIO8_9Zq9iC-30" value="Thread" style="text;html=1;strokeColor=none;fillColor=none;align=center;verticalAlign=middle;whiteSpace=wrap;rounded=0;fontStyle=1" vertex="1" parent="1">
          <mxGeometry x="410" y="180" width="60" height="30" as="geometry" />
        </mxCell>
        <mxCell id="RyWQwI0cDfIO8_9Zq9iC-31" value="Thread" style="text;html=1;strokeColor=none;fillColor=none;align=center;verticalAlign=middle;whiteSpace=wrap;rounded=0;fontStyle=1" vertex="1" parent="1">
          <mxGeometry x="520" y="180" width="60" height="30" as="geometry" />
        </mxCell>
        <mxCell id="RyWQwI0cDfIO8_9Zq9iC-32" value="Thread" style="text;html=1;strokeColor=none;fillColor=none;align=center;verticalAlign=middle;whiteSpace=wrap;rounded=0;fontStyle=1" vertex="1" parent="1">
          <mxGeometry x="630" y="180" width="60" height="30" as="geometry" />
        </mxCell>
      </root>
    </mxGraphModel>
  </diagram>
  <diagram id="ybnVsM8zBqesQrFT6bwJ" name="Thread">
    <mxGraphModel dx="1408" dy="1043" grid="1" gridSize="10" guides="1" tooltips="1" connect="1" arrows="1" fold="1" page="1" pageScale="1" pageWidth="827" pageHeight="1169" math="0" shadow="0">
      <root>
        <mxCell id="0" />
        <mxCell id="1" parent="0" />
        <mxCell id="YfhGJfZbO3_CSOJu_2DF-1" value="" style="rounded=0;whiteSpace=wrap;html=1;fillColor=none;fontStyle=1;strokeColor=none;" vertex="1" parent="1">
          <mxGeometry x="80" y="320" width="680" height="160" as="geometry" />
        </mxCell>
        <mxCell id="YfhGJfZbO3_CSOJu_2DF-2" value="" style="endArrow=classic;html=1;rounded=0;strokeWidth=4;" edge="1" parent="1">
          <mxGeometry width="50" height="50" relative="1" as="geometry">
            <mxPoint x="120" y="400" as="sourcePoint" />
            <mxPoint x="720" y="400" as="targetPoint" />
          </mxGeometry>
        </mxCell>
        <mxCell id="YfhGJfZbO3_CSOJu_2DF-3" value="" style="endArrow=classic;html=1;rounded=0;" edge="1" parent="1">
          <mxGeometry width="50" height="50" relative="1" as="geometry">
            <mxPoint x="120" y="440" as="sourcePoint" />
            <mxPoint x="240" y="440" as="targetPoint" />
          </mxGeometry>
        </mxCell>
        <mxCell id="YfhGJfZbO3_CSOJu_2DF-4" value="" style="endArrow=none;dashed=1;html=1;dashPattern=1 3;strokeWidth=2;rounded=0;" edge="1" parent="1">
          <mxGeometry width="50" height="50" relative="1" as="geometry">
            <mxPoint x="300" y="400" as="sourcePoint" />
            <mxPoint x="340" y="440" as="targetPoint" />
          </mxGeometry>
        </mxCell>
        <mxCell id="YfhGJfZbO3_CSOJu_2DF-5" value="" style="endArrow=classic;html=1;rounded=0;" edge="1" parent="1">
          <mxGeometry width="50" height="50" relative="1" as="geometry">
            <mxPoint x="340" y="440" as="sourcePoint" />
            <mxPoint x="460" y="440" as="targetPoint" />
          </mxGeometry>
        </mxCell>
        <mxCell id="YfhGJfZbO3_CSOJu_2DF-6" value="" style="endArrow=classic;html=1;rounded=0;" edge="1" parent="1">
          <mxGeometry width="50" height="50" relative="1" as="geometry">
            <mxPoint x="500" y="360" as="sourcePoint" />
            <mxPoint x="620" y="360" as="targetPoint" />
          </mxGeometry>
        </mxCell>
        <mxCell id="YfhGJfZbO3_CSOJu_2DF-7" value="" style="endArrow=none;dashed=1;html=1;dashPattern=1 3;strokeWidth=2;rounded=0;" edge="1" parent="1">
          <mxGeometry width="50" height="50" relative="1" as="geometry">
            <mxPoint x="460" y="400" as="sourcePoint" />
            <mxPoint x="500" y="360" as="targetPoint" />
          </mxGeometry>
        </mxCell>
        <mxCell id="YfhGJfZbO3_CSOJu_2DF-8" value="Main Thread" style="text;html=1;strokeColor=none;fillColor=none;align=center;verticalAlign=middle;whiteSpace=wrap;rounded=0;" vertex="1" parent="1">
          <mxGeometry x="120" y="360" width="100" height="40" as="geometry" />
        </mxCell>
        <mxCell id="YfhGJfZbO3_CSOJu_2DF-10" value="time" style="text;html=1;strokeColor=none;fillColor=none;align=center;verticalAlign=middle;whiteSpace=wrap;rounded=0;" vertex="1" parent="1">
          <mxGeometry x="120" y="400" width="100" height="40" as="geometry" />
        </mxCell>
        <mxCell id="YfhGJfZbO3_CSOJu_2DF-11" value="Starting new Thread" style="text;html=1;strokeColor=none;fillColor=none;align=center;verticalAlign=middle;whiteSpace=wrap;rounded=0;" vertex="1" parent="1">
          <mxGeometry x="240" y="360" width="120" height="40" as="geometry" />
        </mxCell>
        <mxCell id="YfhGJfZbO3_CSOJu_2DF-13" value="Thread is running" style="text;html=1;strokeColor=none;fillColor=none;align=center;verticalAlign=middle;whiteSpace=wrap;rounded=0;" vertex="1" parent="1">
          <mxGeometry x="340" y="440" width="120" height="40" as="geometry" />
        </mxCell>
        <mxCell id="YfhGJfZbO3_CSOJu_2DF-14" value="Starting new Thread" style="text;html=1;strokeColor=none;fillColor=none;align=center;verticalAlign=middle;whiteSpace=wrap;rounded=0;" vertex="1" parent="1">
          <mxGeometry x="400" y="400" width="120" height="40" as="geometry" />
        </mxCell>
        <mxCell id="YfhGJfZbO3_CSOJu_2DF-15" value="Thread is running" style="text;html=1;strokeColor=none;fillColor=none;align=center;verticalAlign=middle;whiteSpace=wrap;rounded=0;" vertex="1" parent="1">
          <mxGeometry x="500" y="320" width="120" height="40" as="geometry" />
        </mxCell>
      </root>
    </mxGraphModel>
  </diagram>
</mxfile>
